<?xml version="1.0" encoding="utf-8"?>
<svg viewBox="0 0 500 428.571" xmlns="http://www.w3.org/2000/svg">
  <path d="M 47.619 428.571 C 34.524 428.571 23.314 423.909 13.989 414.584 C 4.663 405.257 0 394.048 0 380.952 L 0 95.238 L 47.619 95.238 L 47.619 380.952 L 404.762 380.952 L 404.762 428.571 L 47.619 428.571 Z M 142.857 333.333 C 129.762 333.333 118.552 328.671 109.227 319.346 C 99.901 310.019 95.238 298.81 95.238 285.714 L 95.238 0 L 500 0 L 500 285.714 C 500 298.81 495.337 310.019 486.012 319.346 C 476.686 328.671 465.476 333.333 452.381 333.333 L 142.857 333.333 Z M 142.857 285.714 L 452.381 285.714 L 452.381 47.619 L 142.857 47.619 L 142.857 285.714 Z M 190.476 214.285 L 285.715 214.285 L 285.715 95.238 L 190.476 95.238 L 190.476 214.285 Z M 309.524 214.285 L 404.762 214.285 L 404.762 166.667 L 309.524 166.667 L 309.524 214.285 Z M 309.524 142.857 L 404.762 142.857 L 404.762 95.238 L 309.524 95.238 L 309.524 142.857 Z M 142.857 285.714 L 142.857 47.619 L 142.857 285.714 Z" style="fill: rgb(248, 193, 139);"/>
</svg>